<svg xmlns="http://www.w3.org/2000/svg" xmlns:xlink="http://www.w3.org/1999/xlink" width="16" zoomAndPan="magnify" viewBox="0 0 36 36.000001" height="16" preserveAspectRatio="xMidYMid meet" version="1.0"><defs><clipPath id="id1"><path d="M 0.488281 0.808594 L 35.511719 0.808594 L 35.511719 34.378906 L 0.488281 34.378906 Z M 0.488281 0.808594 " clip-rule="nonzero"/></clipPath></defs><g clip-path="url(#id1)"><path fill="rgb(100%, 100%, 100%)" d="M 12.933594 25.015625 L 28.679688 25.015625 C 29.023438 25.011719 29.355469 24.953125 29.679688 24.839844 C 30.003906 24.730469 30.304688 24.566406 30.574219 24.355469 C 30.847656 24.144531 31.078125 23.894531 31.265625 23.605469 C 31.457031 23.320312 31.59375 23.007812 31.683594 22.675781 L 35.335938 9.164062 C 35.390625 8.929688 35.34375 8.71875 35.199219 8.53125 C 35.042969 8.359375 34.855469 8.265625 34.628906 8.246094 L 7.582031 8.246094 L 5.730469 1.402344 C 5.6875 1.242188 5.601562 1.113281 5.46875 1.011719 C 5.335938 0.914062 5.1875 0.867188 5.019531 0.871094 L 0.539062 0.871094 L 0.539062 2.355469 L 4.472656 2.355469 L 6.273438 9.121094 L 6.273438 9.167969 L 9.929688 22.675781 C 9.957031 22.746094 10 22.839844 10.035156 22.929688 L 11.28125 27.601562 C 10.703125 27.914062 10.242188 28.351562 9.902344 28.914062 C 9.5625 29.480469 9.390625 30.089844 9.386719 30.75 L 9.386719 31.511719 L 9.472656 31.511719 C 9.554688 31.914062 9.699219 32.289062 9.910156 32.640625 C 10.121094 32.992188 10.382812 33.296875 10.695312 33.554688 C 11.011719 33.816406 11.363281 34.011719 11.746094 34.152344 C 12.128906 34.289062 12.523438 34.355469 12.933594 34.355469 C 13.410156 34.355469 13.867188 34.265625 14.3125 34.082031 C 14.753906 33.902344 15.144531 33.640625 15.480469 33.304688 C 15.820312 32.964844 16.085938 32.578125 16.269531 32.132812 C 16.457031 31.691406 16.550781 31.230469 16.554688 30.75 C 16.535156 29.96875 16.296875 29.261719 15.832031 28.632812 L 25.777344 28.632812 C 25.3125 29.261719 25.070312 29.96875 25.050781 30.75 C 25.058594 31.230469 25.152344 31.691406 25.339844 32.136719 C 25.523438 32.578125 25.785156 32.96875 26.125 33.304688 C 26.464844 33.640625 26.855469 33.902344 27.296875 34.085938 C 27.738281 34.265625 28.199219 34.355469 28.675781 34.355469 C 29.085938 34.355469 29.480469 34.289062 29.863281 34.152344 C 30.25 34.011719 30.597656 33.816406 30.914062 33.554688 C 31.230469 33.296875 31.492188 32.992188 31.703125 32.640625 C 31.910156 32.289062 32.058594 31.910156 32.136719 31.507812 L 32.226562 31.507812 L 32.226562 30.75 C 32.230469 30.273438 32.144531 29.816406 31.964844 29.375 C 31.785156 28.933594 31.53125 28.546875 31.199219 28.207031 C 30.863281 27.871094 30.480469 27.609375 30.042969 27.425781 C 29.605469 27.242188 29.152344 27.148438 28.679688 27.148438 L 12.933594 27.148438 C 12.878906 27.148438 12.796875 27.171875 12.691406 27.179688 L 12.074219 24.855469 C 12.351562 24.960938 12.636719 25.011719 12.933594 25.015625 Z M 12.933594 32.90625 C 12.652344 32.90625 12.382812 32.847656 12.125 32.738281 C 11.863281 32.628906 11.636719 32.472656 11.4375 32.273438 C 11.242188 32.070312 11.089844 31.839844 10.984375 31.578125 C 10.875 31.316406 10.824219 31.042969 10.824219 30.761719 C 10.824219 30.480469 10.878906 30.207031 10.988281 29.945312 C 11.097656 29.683594 11.25 29.453125 11.449219 29.253906 C 11.648438 29.054688 11.875 28.902344 12.136719 28.792969 C 12.394531 28.683594 12.667969 28.628906 12.949219 28.628906 C 13.230469 28.628906 13.5 28.679688 13.761719 28.789062 C 14.019531 28.894531 14.25 29.046875 14.449219 29.246094 C 14.648438 29.445312 14.804688 29.675781 14.914062 29.9375 C 15.023438 30.195312 15.078125 30.46875 15.082031 30.75 C 15.089844 31.039062 15.039062 31.316406 14.933594 31.585938 C 14.828125 31.855469 14.671875 32.089844 14.46875 32.292969 C 14.265625 32.5 14.03125 32.65625 13.765625 32.761719 C 13.496094 32.867188 13.222656 32.917969 12.933594 32.910156 Z M 28.679688 32.90625 C 28.394531 32.914062 28.121094 32.867188 27.855469 32.765625 C 27.589844 32.664062 27.355469 32.515625 27.152344 32.316406 C 26.945312 32.121094 26.785156 31.890625 26.671875 31.628906 C 26.558594 31.371094 26.496094 31.097656 26.492188 30.8125 C 26.488281 30.527344 26.535156 30.25 26.640625 29.984375 C 26.742188 29.71875 26.894531 29.484375 27.089844 29.28125 C 27.289062 29.074219 27.519531 28.917969 27.777344 28.804688 C 28.039062 28.691406 28.3125 28.632812 28.59375 28.628906 C 28.878906 28.625 29.152344 28.679688 29.414062 28.785156 C 29.679688 28.890625 29.910156 29.042969 30.113281 29.242188 C 30.316406 29.445312 30.472656 29.675781 30.582031 29.9375 C 30.691406 30.199219 30.746094 30.476562 30.75 30.761719 C 30.753906 31.042969 30.707031 31.3125 30.605469 31.574219 C 30.503906 31.835938 30.355469 32.070312 30.160156 32.269531 C 29.96875 32.472656 29.742188 32.628906 29.484375 32.742188 C 29.226562 32.851562 28.957031 32.910156 28.679688 32.910156 Z M 28.679688 32.90625 " fill-opacity="1" fill-rule="nonzero"/></g></svg>