<svg xmlns="http://www.w3.org/2000/svg" xmlns:xlink="http://www.w3.org/1999/xlink" width="320" zoomAndPan="magnify" viewBox="0 0 240 74.999997" height="100" preserveAspectRatio="xMidYMid meet" version="1.0"><defs><g><g id="id1"/><g id="id2"/></g></defs><g fill="rgb(34.899902%, 34.899902%, 34.899902%)" fill-opacity="1"><g transform="translate(23.843752, 52.186785)"><g><path d="M 3.1875 0.65625 L 2.953125 1.28125 C 2.597656 1.101562 2.332031 0.921875 2.15625 0.734375 C 1.988281 0.546875 1.863281 0.285156 1.78125 -0.046875 C 1.707031 -0.378906 1.671875 -0.851562 1.671875 -1.46875 L 1.671875 -2.71875 C 1.671875 -2.851562 1.609375 -3.007812 1.484375 -3.1875 C 1.367188 -3.375 1.273438 -3.503906 1.203125 -3.578125 C 1.128906 -3.648438 1.015625 -3.753906 0.859375 -3.890625 C 1.035156 -4.035156 1.210938 -4.21875 1.390625 -4.4375 C 1.566406 -4.664062 1.65625 -4.878906 1.65625 -5.078125 L 1.65625 -6.234375 C 1.65625 -7.140625 1.738281 -7.78125 1.90625 -8.15625 C 2.082031 -8.53125 2.425781 -8.828125 2.9375 -9.046875 L 3.171875 -8.453125 C 2.679688 -8.191406 2.4375 -7.707031 2.4375 -7 L 2.4375 -5.015625 C 2.4375 -4.703125 2.222656 -4.332031 1.796875 -3.90625 C 2.242188 -3.46875 2.46875 -3.09375 2.46875 -2.78125 L 2.46875 -0.796875 C 2.46875 -0.0546875 2.707031 0.425781 3.1875 0.65625 Z M 3.1875 0.65625 "/></g></g></g><g fill="rgb(34.899902%, 34.899902%, 34.899902%)" fill-opacity="1"><g transform="translate(27.416231, 52.186785)"><g/></g></g><g fill="rgb(34.899902%, 34.899902%, 34.899902%)" fill-opacity="1"><g transform="translate(30.472066, 52.186785)"><g><path d="M 0.40625 -1.953125 L 1.234375 -2.015625 C 1.265625 -1.648438 1.441406 -1.332031 1.765625 -1.0625 C 2.085938 -0.789062 2.5 -0.65625 3 -0.65625 C 3.507812 -0.65625 3.929688 -0.769531 4.265625 -1 C 4.609375 -1.238281 4.78125 -1.585938 4.78125 -2.046875 C 4.78125 -2.378906 4.675781 -2.664062 4.46875 -2.90625 C 4.257812 -3.144531 4 -3.328125 3.6875 -3.453125 C 3.382812 -3.578125 3.050781 -3.710938 2.6875 -3.859375 C 2.320312 -4.003906 1.984375 -4.144531 1.671875 -4.28125 C 1.367188 -4.425781 1.113281 -4.632812 0.90625 -4.90625 C 0.707031 -5.1875 0.609375 -5.523438 0.609375 -5.921875 C 0.609375 -6.429688 0.816406 -6.875 1.234375 -7.25 C 1.660156 -7.625 2.273438 -7.8125 3.078125 -7.8125 C 3.691406 -7.8125 4.226562 -7.703125 4.6875 -7.484375 C 4.6875 -7.460938 4.601562 -7.210938 4.4375 -6.734375 C 3.988281 -6.929688 3.523438 -7.03125 3.046875 -7.03125 C 2.566406 -7.03125 2.175781 -6.925781 1.875 -6.71875 C 1.582031 -6.507812 1.4375 -6.234375 1.4375 -5.890625 C 1.4375 -5.460938 1.71875 -5.125 2.28125 -4.875 C 2.53125 -4.757812 2.800781 -4.648438 3.09375 -4.546875 C 3.394531 -4.441406 3.691406 -4.320312 3.984375 -4.1875 C 4.285156 -4.0625 4.554688 -3.910156 4.796875 -3.734375 C 5.046875 -3.566406 5.242188 -3.34375 5.390625 -3.0625 C 5.546875 -2.789062 5.625 -2.476562 5.625 -2.125 C 5.625 -1.445312 5.410156 -0.898438 4.984375 -0.484375 C 4.554688 -0.078125 3.914062 0.125 3.0625 0.125 C 2.21875 0.125 1.566406 -0.0820312 1.109375 -0.5 C 0.648438 -0.925781 0.414062 -1.410156 0.40625 -1.953125 Z M 0.40625 -1.953125 "/></g></g></g><g fill="rgb(34.899902%, 34.899902%, 34.899902%)" fill-opacity="1"><g transform="translate(36.638703, 52.186785)"><g><path d="M 4.515625 0 L 0.859375 0 L 0.859375 -7.703125 L 4.53125 -7.703125 L 4.53125 -6.9375 L 1.65625 -6.9375 L 1.65625 -4.546875 L 3.578125 -4.546875 L 3.328125 -3.765625 L 1.65625 -3.765625 L 1.65625 -0.71875 L 4.515625 -0.71875 Z M 4.515625 0 "/></g></g></g><g fill="rgb(34.899902%, 34.899902%, 34.899902%)" fill-opacity="1"><g transform="translate(41.750092, 52.186785)"><g><path d="M 5.640625 0 L 4.828125 0 L 3.953125 -2.546875 C 3.828125 -2.535156 3.710938 -2.53125 3.609375 -2.53125 L 1.65625 -2.53125 L 1.65625 0 L 0.859375 0 L 0.859375 -7.703125 L 3.53125 -7.703125 C 4.238281 -7.703125 4.765625 -7.476562 5.109375 -7.03125 C 5.453125 -6.582031 5.625 -5.992188 5.625 -5.265625 C 5.625 -4.367188 5.488281 -3.710938 5.21875 -3.296875 C 5.082031 -3.097656 4.910156 -2.9375 4.703125 -2.8125 Z M 1.65625 -3.296875 L 3.515625 -3.296875 C 3.941406 -3.296875 4.25 -3.421875 4.4375 -3.671875 C 4.53125 -3.796875 4.601562 -3.910156 4.65625 -4.015625 C 4.707031 -4.128906 4.75 -4.28125 4.78125 -4.46875 C 4.800781 -4.707031 4.8125 -4.972656 4.8125 -5.265625 C 4.8125 -6.378906 4.34375 -6.9375 3.40625 -6.9375 L 1.65625 -6.9375 Z M 1.65625 -3.296875 "/></g></g></g><g fill="rgb(34.899902%, 34.899902%, 34.899902%)" fill-opacity="1"><g transform="translate(47.94971, 52.186785)"><g><path d="M 4 0 L 2.984375 0 L 0.859375 -7.703125 L 1.734375 -7.703125 L 3.484375 -1.25 L 5.234375 -7.703125 L 6.109375 -7.703125 Z M 4 0 "/></g></g></g><g fill="rgb(34.899902%, 34.899902%, 34.899902%)" fill-opacity="1"><g transform="translate(54.44612, 52.186785)"><g><path d="M 2.21875 0 L 1.4375 0 L 1.4375 -6.953125 L 0.703125 -6.96875 L 0.703125 -7.703125 L 2.21875 -7.703125 Z M 2.21875 0 "/></g></g></g><g fill="rgb(34.899902%, 34.899902%, 34.899902%)" fill-opacity="1"><g transform="translate(57.512953, 52.186785)"><g><path d="M 1.515625 -2.03125 C 1.515625 -1.113281 2.019531 -0.65625 3.03125 -0.65625 C 3.457031 -0.65625 3.960938 -0.753906 4.546875 -0.953125 L 4.703125 -0.25 C 4.078125 -0.0078125 3.484375 0.109375 2.921875 0.109375 C 2.796875 0.109375 2.613281 0.0976562 2.375 0.078125 C 2.144531 0.0546875 1.894531 -0.0234375 1.625 -0.171875 C 1.351562 -0.316406 1.132812 -0.539062 0.96875 -0.84375 C 0.800781 -1.15625 0.71875 -1.546875 0.71875 -2.015625 L 0.71875 -5.546875 C 0.71875 -6.097656 0.796875 -6.515625 0.953125 -6.796875 C 1.117188 -7.085938 1.363281 -7.332031 1.6875 -7.53125 C 2.007812 -7.71875 2.398438 -7.8125 2.859375 -7.8125 C 3.421875 -7.8125 3.941406 -7.691406 4.421875 -7.453125 L 4.1875 -6.8125 C 3.789062 -6.96875 3.4375 -7.046875 3.125 -7.046875 C 2.820312 -7.046875 2.566406 -7.015625 2.359375 -6.953125 C 2.148438 -6.890625 1.957031 -6.742188 1.78125 -6.515625 C 1.601562 -6.296875 1.515625 -6.003906 1.515625 -5.640625 Z M 1.515625 -2.03125 "/></g></g></g><g fill="rgb(34.899902%, 34.899902%, 34.899902%)" fill-opacity="1"><g transform="translate(62.283583, 52.186785)"><g><path d="M 2.21875 0 L 1.4375 0 L 1.4375 -6.953125 L 0.703125 -6.96875 L 0.703125 -7.703125 L 2.21875 -7.703125 Z M 2.21875 0 "/></g></g></g><g fill="rgb(34.899902%, 34.899902%, 34.899902%)" fill-opacity="1"><g transform="translate(65.350416, 52.186785)"><g><path d="M 5.3125 -5.5625 L 5.3125 -2.03125 C 5.3125 -1.289062 5.082031 -0.742188 4.625 -0.390625 C 4.175781 -0.046875 3.632812 0.125 3 0.125 C 2.375 0.125 1.832031 -0.046875 1.375 -0.390625 C 0.914062 -0.742188 0.6875 -1.289062 0.6875 -2.03125 L 0.6875 -5.578125 C 0.6875 -6.328125 0.894531 -6.894531 1.3125 -7.28125 C 1.726562 -7.675781 2.296875 -7.875 3.015625 -7.875 C 3.742188 -7.875 4.304688 -7.664062 4.703125 -7.25 C 5.109375 -6.84375 5.3125 -6.28125 5.3125 -5.5625 Z M 4.515625 -2.125 L 4.515625 -5.515625 C 4.515625 -6.023438 4.382812 -6.410156 4.125 -6.671875 C 3.863281 -6.941406 3.488281 -7.078125 3 -7.078125 C 1.988281 -7.078125 1.484375 -6.554688 1.484375 -5.515625 L 1.484375 -2.09375 C 1.484375 -1.625 1.625 -1.265625 1.90625 -1.015625 C 2.1875 -0.773438 2.550781 -0.65625 3 -0.65625 C 3.457031 -0.65625 3.820312 -0.773438 4.09375 -1.015625 C 4.375 -1.265625 4.515625 -1.632812 4.515625 -2.125 Z M 4.515625 -2.125 "/></g></g></g><g fill="rgb(34.899902%, 34.899902%, 34.899902%)" fill-opacity="1"><g transform="translate(71.385148, 52.186785)"><g><path d="M 0.40625 -1.953125 L 1.234375 -2.015625 C 1.265625 -1.648438 1.441406 -1.332031 1.765625 -1.0625 C 2.085938 -0.789062 2.5 -0.65625 3 -0.65625 C 3.507812 -0.65625 3.929688 -0.769531 4.265625 -1 C 4.609375 -1.238281 4.78125 -1.585938 4.78125 -2.046875 C 4.78125 -2.378906 4.675781 -2.664062 4.46875 -2.90625 C 4.257812 -3.144531 4 -3.328125 3.6875 -3.453125 C 3.382812 -3.578125 3.050781 -3.710938 2.6875 -3.859375 C 2.320312 -4.003906 1.984375 -4.144531 1.671875 -4.28125 C 1.367188 -4.425781 1.113281 -4.632812 0.90625 -4.90625 C 0.707031 -5.1875 0.609375 -5.523438 0.609375 -5.921875 C 0.609375 -6.429688 0.816406 -6.875 1.234375 -7.25 C 1.660156 -7.625 2.273438 -7.8125 3.078125 -7.8125 C 3.691406 -7.8125 4.226562 -7.703125 4.6875 -7.484375 C 4.6875 -7.460938 4.601562 -7.210938 4.4375 -6.734375 C 3.988281 -6.929688 3.523438 -7.03125 3.046875 -7.03125 C 2.566406 -7.03125 2.175781 -6.925781 1.875 -6.71875 C 1.582031 -6.507812 1.4375 -6.234375 1.4375 -5.890625 C 1.4375 -5.460938 1.71875 -5.125 2.28125 -4.875 C 2.53125 -4.757812 2.800781 -4.648438 3.09375 -4.546875 C 3.394531 -4.441406 3.691406 -4.320312 3.984375 -4.1875 C 4.285156 -4.0625 4.554688 -3.910156 4.796875 -3.734375 C 5.046875 -3.566406 5.242188 -3.34375 5.390625 -3.0625 C 5.546875 -2.789062 5.625 -2.476562 5.625 -2.125 C 5.625 -1.445312 5.410156 -0.898438 4.984375 -0.484375 C 4.554688 -0.078125 3.914062 0.125 3.0625 0.125 C 2.21875 0.125 1.566406 -0.0820312 1.109375 -0.5 C 0.648438 -0.925781 0.414062 -1.410156 0.40625 -1.953125 Z M 0.40625 -1.953125 "/></g></g></g><g fill="rgb(34.899902%, 34.899902%, 34.899902%)" fill-opacity="1"><g transform="translate(77.551785, 52.186785)"><g/></g></g><g fill="rgb(34.899902%, 34.899902%, 34.899902%)" fill-opacity="1"><g transform="translate(80.607621, 52.186785)"><g><path d="M 4.203125 0.125 L 3.984375 -0.4375 C 4.191406 -0.5 4.363281 -0.617188 4.5 -0.796875 C 4.632812 -0.984375 4.703125 -1.289062 4.703125 -1.71875 L 4.703125 -2.984375 C 4.335938 -2.679688 3.789062 -2.53125 3.0625 -2.53125 C 2.34375 -2.53125 1.753906 -2.726562 1.296875 -3.125 C 0.835938 -3.53125 0.609375 -4.101562 0.609375 -4.84375 L 0.609375 -7.703125 L 1.421875 -7.703125 L 1.421875 -4.8125 C 1.421875 -4.3125 1.570312 -3.9375 1.875 -3.6875 C 2.1875 -3.4375 2.570312 -3.3125 3.03125 -3.3125 C 3.5 -3.3125 3.875 -3.390625 4.15625 -3.546875 C 4.445312 -3.703125 4.628906 -3.925781 4.703125 -4.21875 L 4.703125 -7.703125 L 5.5 -7.703125 L 5.5 -1.71875 C 5.5 -0.601562 5.066406 0.0078125 4.203125 0.125 Z M 4.203125 0.125 "/></g></g></g><g fill="rgb(34.899902%, 34.899902%, 34.899902%)" fill-opacity="1"><g transform="translate(86.719303, 52.186785)"><g/></g></g><g fill="rgb(34.899902%, 34.899902%, 34.899902%)" fill-opacity="1"><g transform="translate(89.775139, 52.186785)"><g><path d="M 5.640625 0 L 4.828125 0 L 3.953125 -2.546875 C 3.828125 -2.535156 3.710938 -2.53125 3.609375 -2.53125 L 1.65625 -2.53125 L 1.65625 0 L 0.859375 0 L 0.859375 -7.703125 L 3.53125 -7.703125 C 4.238281 -7.703125 4.765625 -7.476562 5.109375 -7.03125 C 5.453125 -6.582031 5.625 -5.992188 5.625 -5.265625 C 5.625 -4.367188 5.488281 -3.710938 5.21875 -3.296875 C 5.082031 -3.097656 4.910156 -2.9375 4.703125 -2.8125 Z M 1.65625 -3.296875 L 3.515625 -3.296875 C 3.941406 -3.296875 4.25 -3.421875 4.4375 -3.671875 C 4.53125 -3.796875 4.601562 -3.910156 4.65625 -4.015625 C 4.707031 -4.128906 4.75 -4.28125 4.78125 -4.46875 C 4.800781 -4.707031 4.8125 -4.972656 4.8125 -5.265625 C 4.8125 -6.378906 4.34375 -6.9375 3.40625 -6.9375 L 1.65625 -6.9375 Z M 1.65625 -3.296875 "/></g></g></g><g fill="rgb(34.899902%, 34.899902%, 34.899902%)" fill-opacity="1"><g transform="translate(95.974757, 52.186785)"><g><path d="M 4.515625 0 L 0.859375 0 L 0.859375 -7.703125 L 4.53125 -7.703125 L 4.53125 -6.9375 L 1.65625 -6.9375 L 1.65625 -4.546875 L 3.578125 -4.546875 L 3.328125 -3.765625 L 1.65625 -3.765625 L 1.65625 -0.71875 L 4.515625 -0.71875 Z M 4.515625 0 "/></g></g></g><g fill="rgb(34.899902%, 34.899902%, 34.899902%)" fill-opacity="1"><g transform="translate(101.086146, 52.186785)"><g><path d="M 1.65625 -3.296875 L 3.484375 -3.296875 C 3.753906 -3.296875 3.976562 -3.347656 4.15625 -3.453125 C 4.34375 -3.554688 4.476562 -3.664062 4.5625 -3.78125 C 4.644531 -3.894531 4.707031 -4.0625 4.75 -4.28125 C 4.800781 -4.507812 4.828125 -4.675781 4.828125 -4.78125 C 4.835938 -4.894531 4.84375 -5.054688 4.84375 -5.265625 C 4.84375 -6.378906 4.375 -6.9375 3.4375 -6.9375 L 1.65625 -6.9375 Z M 1.65625 0 L 0.859375 0 L 0.859375 -7.703125 L 3.515625 -7.703125 C 4.234375 -7.703125 4.765625 -7.476562 5.109375 -7.03125 C 5.453125 -6.582031 5.625 -5.992188 5.625 -5.265625 C 5.625 -5.015625 5.617188 -4.796875 5.609375 -4.609375 C 5.597656 -4.421875 5.550781 -4.179688 5.46875 -3.890625 C 5.394531 -3.609375 5.289062 -3.378906 5.15625 -3.203125 C 5.03125 -3.023438 4.828125 -2.867188 4.546875 -2.734375 C 4.273438 -2.597656 3.957031 -2.53125 3.59375 -2.53125 L 1.65625 -2.53125 Z M 1.65625 0 "/></g></g></g><g fill="rgb(34.899902%, 34.899902%, 34.899902%)" fill-opacity="1"><g transform="translate(107.098894, 52.186785)"><g><path d="M 4.65625 -2.140625 L 4.65625 -7.71875 L 5.4375 -7.71875 L 5.4375 -2.046875 C 5.4375 -1.660156 5.367188 -1.320312 5.234375 -1.03125 C 5.097656 -0.75 4.914062 -0.53125 4.6875 -0.375 C 4.457031 -0.21875 4.210938 -0.101562 3.953125 -0.03125 C 3.703125 0.0390625 3.425781 0.078125 3.125 0.078125 C 2.832031 0.078125 2.554688 0.0390625 2.296875 -0.03125 C 2.035156 -0.101562 1.789062 -0.21875 1.5625 -0.375 C 1.332031 -0.53125 1.148438 -0.75 1.015625 -1.03125 C 0.878906 -1.320312 0.8125 -1.660156 0.8125 -2.046875 L 0.8125 -7.71875 L 1.609375 -7.71875 L 1.609375 -2.140625 C 1.609375 -1.679688 1.742188 -1.316406 2.015625 -1.046875 C 2.296875 -0.785156 2.664062 -0.65625 3.125 -0.65625 C 3.59375 -0.65625 3.960938 -0.785156 4.234375 -1.046875 C 4.515625 -1.316406 4.65625 -1.679688 4.65625 -2.140625 Z M 4.65625 -2.140625 "/></g></g></g><g fill="rgb(34.899902%, 34.899902%, 34.899902%)" fill-opacity="1"><g transform="translate(113.320497, 52.186785)"><g><path d="M 4.515625 0 L 0.859375 0 L 0.859375 -7.703125 L 4.53125 -7.703125 L 4.53125 -6.9375 L 1.65625 -6.9375 L 1.65625 -4.546875 L 3.578125 -4.546875 L 3.328125 -3.765625 L 1.65625 -3.765625 L 1.65625 -0.71875 L 4.515625 -0.71875 Z M 4.515625 0 "/></g></g></g><g fill="rgb(34.899902%, 34.899902%, 34.899902%)" fill-opacity="1"><g transform="translate(118.431886, 52.186785)"><g><path d="M 0.40625 -1.953125 L 1.234375 -2.015625 C 1.265625 -1.648438 1.441406 -1.332031 1.765625 -1.0625 C 2.085938 -0.789062 2.5 -0.65625 3 -0.65625 C 3.507812 -0.65625 3.929688 -0.769531 4.265625 -1 C 4.609375 -1.238281 4.78125 -1.585938 4.78125 -2.046875 C 4.78125 -2.378906 4.675781 -2.664062 4.46875 -2.90625 C 4.257812 -3.144531 4 -3.328125 3.6875 -3.453125 C 3.382812 -3.578125 3.050781 -3.710938 2.6875 -3.859375 C 2.320312 -4.003906 1.984375 -4.144531 1.671875 -4.28125 C 1.367188 -4.425781 1.113281 -4.632812 0.90625 -4.90625 C 0.707031 -5.1875 0.609375 -5.523438 0.609375 -5.921875 C 0.609375 -6.429688 0.816406 -6.875 1.234375 -7.25 C 1.660156 -7.625 2.273438 -7.8125 3.078125 -7.8125 C 3.691406 -7.8125 4.226562 -7.703125 4.6875 -7.484375 C 4.6875 -7.460938 4.601562 -7.210938 4.4375 -6.734375 C 3.988281 -6.929688 3.523438 -7.03125 3.046875 -7.03125 C 2.566406 -7.03125 2.175781 -6.925781 1.875 -6.71875 C 1.582031 -6.507812 1.4375 -6.234375 1.4375 -5.890625 C 1.4375 -5.460938 1.71875 -5.125 2.28125 -4.875 C 2.53125 -4.757812 2.800781 -4.648438 3.09375 -4.546875 C 3.394531 -4.441406 3.691406 -4.320312 3.984375 -4.1875 C 4.285156 -4.0625 4.554688 -3.910156 4.796875 -3.734375 C 5.046875 -3.566406 5.242188 -3.34375 5.390625 -3.0625 C 5.546875 -2.789062 5.625 -2.476562 5.625 -2.125 C 5.625 -1.445312 5.410156 -0.898438 4.984375 -0.484375 C 4.554688 -0.078125 3.914062 0.125 3.0625 0.125 C 2.21875 0.125 1.566406 -0.0820312 1.109375 -0.5 C 0.648438 -0.925781 0.414062 -1.410156 0.40625 -1.953125 Z M 0.40625 -1.953125 "/></g></g></g><g fill="rgb(34.899902%, 34.899902%, 34.899902%)" fill-opacity="1"><g transform="translate(124.598523, 52.186785)"><g><path d="M 2.578125 0 L 1.78125 0 L 1.78125 -6.953125 L 0 -6.953125 L 0 -7.703125 L 4.421875 -7.703125 L 4.421875 -6.953125 L 2.578125 -6.953125 Z M 2.578125 0 "/></g></g></g><g fill="rgb(34.899902%, 34.899902%, 34.899902%)" fill-opacity="1"><g transform="translate(129.017395, 52.186785)"><g><path d="M 5.3125 -5.5625 L 5.3125 -2.03125 C 5.3125 -1.289062 5.082031 -0.742188 4.625 -0.390625 C 4.175781 -0.046875 3.632812 0.125 3 0.125 C 2.375 0.125 1.832031 -0.046875 1.375 -0.390625 C 0.914062 -0.742188 0.6875 -1.289062 0.6875 -2.03125 L 0.6875 -5.578125 C 0.6875 -6.328125 0.894531 -6.894531 1.3125 -7.28125 C 1.726562 -7.675781 2.296875 -7.875 3.015625 -7.875 C 3.742188 -7.875 4.304688 -7.664062 4.703125 -7.25 C 5.109375 -6.84375 5.3125 -6.28125 5.3125 -5.5625 Z M 4.515625 -2.125 L 4.515625 -5.515625 C 4.515625 -6.023438 4.382812 -6.410156 4.125 -6.671875 C 3.863281 -6.941406 3.488281 -7.078125 3 -7.078125 C 1.988281 -7.078125 1.484375 -6.554688 1.484375 -5.515625 L 1.484375 -2.09375 C 1.484375 -1.625 1.625 -1.265625 1.90625 -1.015625 C 2.1875 -0.773438 2.550781 -0.65625 3 -0.65625 C 3.457031 -0.65625 3.820312 -0.773438 4.09375 -1.015625 C 4.375 -1.265625 4.515625 -1.632812 4.515625 -2.125 Z M 4.515625 -2.125 "/></g></g></g><g fill="rgb(34.899902%, 34.899902%, 34.899902%)" fill-opacity="1"><g transform="translate(135.052128, 52.186785)"><g><path d="M 0.40625 -1.953125 L 1.234375 -2.015625 C 1.265625 -1.648438 1.441406 -1.332031 1.765625 -1.0625 C 2.085938 -0.789062 2.5 -0.65625 3 -0.65625 C 3.507812 -0.65625 3.929688 -0.769531 4.265625 -1 C 4.609375 -1.238281 4.78125 -1.585938 4.78125 -2.046875 C 4.78125 -2.378906 4.675781 -2.664062 4.46875 -2.90625 C 4.257812 -3.144531 4 -3.328125 3.6875 -3.453125 C 3.382812 -3.578125 3.050781 -3.710938 2.6875 -3.859375 C 2.320312 -4.003906 1.984375 -4.144531 1.671875 -4.28125 C 1.367188 -4.425781 1.113281 -4.632812 0.90625 -4.90625 C 0.707031 -5.1875 0.609375 -5.523438 0.609375 -5.921875 C 0.609375 -6.429688 0.816406 -6.875 1.234375 -7.25 C 1.660156 -7.625 2.273438 -7.8125 3.078125 -7.8125 C 3.691406 -7.8125 4.226562 -7.703125 4.6875 -7.484375 C 4.6875 -7.460938 4.601562 -7.210938 4.4375 -6.734375 C 3.988281 -6.929688 3.523438 -7.03125 3.046875 -7.03125 C 2.566406 -7.03125 2.175781 -6.925781 1.875 -6.71875 C 1.582031 -6.507812 1.4375 -6.234375 1.4375 -5.890625 C 1.4375 -5.460938 1.71875 -5.125 2.28125 -4.875 C 2.53125 -4.757812 2.800781 -4.648438 3.09375 -4.546875 C 3.394531 -4.441406 3.691406 -4.320312 3.984375 -4.1875 C 4.285156 -4.0625 4.554688 -3.910156 4.796875 -3.734375 C 5.046875 -3.566406 5.242188 -3.34375 5.390625 -3.0625 C 5.546875 -2.789062 5.625 -2.476562 5.625 -2.125 C 5.625 -1.445312 5.410156 -0.898438 4.984375 -0.484375 C 4.554688 -0.078125 3.914062 0.125 3.0625 0.125 C 2.21875 0.125 1.566406 -0.0820312 1.109375 -0.5 C 0.648438 -0.925781 0.414062 -1.410156 0.40625 -1.953125 Z M 0.40625 -1.953125 "/></g></g></g><g fill="rgb(34.899902%, 34.899902%, 34.899902%)" fill-opacity="1"><g transform="translate(141.218765, 52.186785)"><g/></g></g><g fill="rgb(34.899902%, 34.899902%, 34.899902%)" fill-opacity="1"><g transform="translate(144.2746, 52.186785)"><g><path d="M 2.21875 0 L 1.4375 0 L 1.4375 -6.953125 L 0.703125 -6.96875 L 0.703125 -7.703125 L 2.21875 -7.703125 Z M 2.21875 0 "/></g></g></g><g fill="rgb(34.899902%, 34.899902%, 34.899902%)" fill-opacity="1"><g transform="translate(147.341433, 52.186785)"><g><path d="M 6.265625 0 L 5.46875 0 L 1.65625 -6.15625 L 1.65625 0 L 0.859375 0 L 0.859375 -7.703125 L 1.65625 -7.703125 L 5.46875 -1.546875 L 5.46875 -7.703125 L 6.265625 -7.703125 Z M 6.265625 0 "/></g></g></g><g fill="rgb(34.899902%, 34.899902%, 34.899902%)" fill-opacity="1"><g transform="translate(154.48638, 52.186785)"><g><path d="M 1.65625 0 L 0.859375 0 L 0.859375 -7.703125 L 4.53125 -7.703125 L 4.53125 -6.9375 L 1.65625 -6.9375 L 1.65625 -4.546875 L 3.4375 -4.546875 L 3.140625 -3.765625 L 1.65625 -3.765625 Z M 1.65625 0 "/></g></g></g><g fill="rgb(34.899902%, 34.899902%, 34.899902%)" fill-opacity="1"><g transform="translate(159.3999, 52.186785)"><g><path d="M 5.3125 -5.5625 L 5.3125 -2.03125 C 5.3125 -1.289062 5.082031 -0.742188 4.625 -0.390625 C 4.175781 -0.046875 3.632812 0.125 3 0.125 C 2.375 0.125 1.832031 -0.046875 1.375 -0.390625 C 0.914062 -0.742188 0.6875 -1.289062 0.6875 -2.03125 L 0.6875 -5.578125 C 0.6875 -6.328125 0.894531 -6.894531 1.3125 -7.28125 C 1.726562 -7.675781 2.296875 -7.875 3.015625 -7.875 C 3.742188 -7.875 4.304688 -7.664062 4.703125 -7.25 C 5.109375 -6.84375 5.3125 -6.28125 5.3125 -5.5625 Z M 4.515625 -2.125 L 4.515625 -5.515625 C 4.515625 -6.023438 4.382812 -6.410156 4.125 -6.671875 C 3.863281 -6.941406 3.488281 -7.078125 3 -7.078125 C 1.988281 -7.078125 1.484375 -6.554688 1.484375 -5.515625 L 1.484375 -2.09375 C 1.484375 -1.625 1.625 -1.265625 1.90625 -1.015625 C 2.1875 -0.773438 2.550781 -0.65625 3 -0.65625 C 3.457031 -0.65625 3.820312 -0.773438 4.09375 -1.015625 C 4.375 -1.265625 4.515625 -1.632812 4.515625 -2.125 Z M 4.515625 -2.125 "/></g></g></g><g fill="rgb(34.899902%, 34.899902%, 34.899902%)" fill-opacity="1"><g transform="translate(165.434632, 52.186785)"><g><path d="M 5.640625 0 L 4.828125 0 L 3.953125 -2.546875 C 3.828125 -2.535156 3.710938 -2.53125 3.609375 -2.53125 L 1.65625 -2.53125 L 1.65625 0 L 0.859375 0 L 0.859375 -7.703125 L 3.53125 -7.703125 C 4.238281 -7.703125 4.765625 -7.476562 5.109375 -7.03125 C 5.453125 -6.582031 5.625 -5.992188 5.625 -5.265625 C 5.625 -4.367188 5.488281 -3.710938 5.21875 -3.296875 C 5.082031 -3.097656 4.910156 -2.9375 4.703125 -2.8125 Z M 1.65625 -3.296875 L 3.515625 -3.296875 C 3.941406 -3.296875 4.25 -3.421875 4.4375 -3.671875 C 4.53125 -3.796875 4.601562 -3.910156 4.65625 -4.015625 C 4.707031 -4.128906 4.75 -4.28125 4.78125 -4.46875 C 4.800781 -4.707031 4.8125 -4.972656 4.8125 -5.265625 C 4.8125 -6.378906 4.34375 -6.9375 3.40625 -6.9375 L 1.65625 -6.9375 Z M 1.65625 -3.296875 "/></g></g></g><g fill="rgb(34.899902%, 34.899902%, 34.899902%)" fill-opacity="1"><g transform="translate(171.634251, 52.186785)"><g><path d="M 6.75 0 L 5.96875 0 L 5.96875 -5.328125 L 4.171875 0 L 3.421875 0 L 1.65625 -5.328125 L 1.65625 0 L 0.859375 0 L 0.859375 -7.703125 L 1.65625 -7.703125 L 3.796875 -1.4375 L 5.96875 -7.703125 L 6.75 -7.703125 Z M 6.75 0 "/></g></g></g><g fill="rgb(34.899902%, 34.899902%, 34.899902%)" fill-opacity="1"><g transform="translate(179.262859, 52.186785)"><g><path d="M 5.6875 0 L 4.796875 0 L 4.03125 -2.484375 L 1.75 -2.484375 L 1.015625 0 L 0.171875 0 L 2.4375 -7.703125 L 3.34375 -7.703125 Z M 3.84375 -3.296875 L 2.875 -6.421875 L 1.953125 -3.296875 Z M 3.84375 -3.296875 "/></g></g></g><g fill="rgb(34.899902%, 34.899902%, 34.899902%)" fill-opacity="1"><g transform="translate(185.055767, 52.186785)"><g><path d="M 2.578125 0 L 1.78125 0 L 1.78125 -6.953125 L 0 -6.953125 L 0 -7.703125 L 4.421875 -7.703125 L 4.421875 -6.953125 L 2.578125 -6.953125 Z M 2.578125 0 "/></g></g></g><g fill="rgb(34.899902%, 34.899902%, 34.899902%)" fill-opacity="1"><g transform="translate(189.474639, 52.186785)"><g><path d="M 2.21875 0 L 1.4375 0 L 1.4375 -6.953125 L 0.703125 -6.96875 L 0.703125 -7.703125 L 2.21875 -7.703125 Z M 2.21875 0 "/></g></g></g><g fill="rgb(34.899902%, 34.899902%, 34.899902%)" fill-opacity="1"><g transform="translate(192.541472, 52.186785)"><g><path d="M 1.515625 -2.03125 C 1.515625 -1.113281 2.019531 -0.65625 3.03125 -0.65625 C 3.457031 -0.65625 3.960938 -0.753906 4.546875 -0.953125 L 4.703125 -0.25 C 4.078125 -0.0078125 3.484375 0.109375 2.921875 0.109375 C 2.796875 0.109375 2.613281 0.0976562 2.375 0.078125 C 2.144531 0.0546875 1.894531 -0.0234375 1.625 -0.171875 C 1.351562 -0.316406 1.132812 -0.539062 0.96875 -0.84375 C 0.800781 -1.15625 0.71875 -1.546875 0.71875 -2.015625 L 0.71875 -5.546875 C 0.71875 -6.097656 0.796875 -6.515625 0.953125 -6.796875 C 1.117188 -7.085938 1.363281 -7.332031 1.6875 -7.53125 C 2.007812 -7.71875 2.398438 -7.8125 2.859375 -7.8125 C 3.421875 -7.8125 3.941406 -7.691406 4.421875 -7.453125 L 4.1875 -6.8125 C 3.789062 -6.96875 3.4375 -7.046875 3.125 -7.046875 C 2.820312 -7.046875 2.566406 -7.015625 2.359375 -6.953125 C 2.148438 -6.890625 1.957031 -6.742188 1.78125 -6.515625 C 1.601562 -6.296875 1.515625 -6.003906 1.515625 -5.640625 Z M 1.515625 -2.03125 "/></g></g></g><g fill="rgb(34.899902%, 34.899902%, 34.899902%)" fill-opacity="1"><g transform="translate(197.312102, 52.186785)"><g><path d="M 5.3125 -5.5625 L 5.3125 -2.03125 C 5.3125 -1.289062 5.082031 -0.742188 4.625 -0.390625 C 4.175781 -0.046875 3.632812 0.125 3 0.125 C 2.375 0.125 1.832031 -0.046875 1.375 -0.390625 C 0.914062 -0.742188 0.6875 -1.289062 0.6875 -2.03125 L 0.6875 -5.578125 C 0.6875 -6.328125 0.894531 -6.894531 1.3125 -7.28125 C 1.726562 -7.675781 2.296875 -7.875 3.015625 -7.875 C 3.742188 -7.875 4.304688 -7.664062 4.703125 -7.25 C 5.109375 -6.84375 5.3125 -6.28125 5.3125 -5.5625 Z M 4.515625 -2.125 L 4.515625 -5.515625 C 4.515625 -6.023438 4.382812 -6.410156 4.125 -6.671875 C 3.863281 -6.941406 3.488281 -7.078125 3 -7.078125 C 1.988281 -7.078125 1.484375 -6.554688 1.484375 -5.515625 L 1.484375 -2.09375 C 1.484375 -1.625 1.625 -1.265625 1.90625 -1.015625 C 2.1875 -0.773438 2.550781 -0.65625 3 -0.65625 C 3.457031 -0.65625 3.820312 -0.773438 4.09375 -1.015625 C 4.375 -1.265625 4.515625 -1.632812 4.515625 -2.125 Z M 4.515625 -2.125 "/></g></g></g><g fill="rgb(34.899902%, 34.899902%, 34.899902%)" fill-opacity="1"><g transform="translate(203.346834, 52.186785)"><g><path d="M 0.40625 -1.953125 L 1.234375 -2.015625 C 1.265625 -1.648438 1.441406 -1.332031 1.765625 -1.0625 C 2.085938 -0.789062 2.5 -0.65625 3 -0.65625 C 3.507812 -0.65625 3.929688 -0.769531 4.265625 -1 C 4.609375 -1.238281 4.78125 -1.585938 4.78125 -2.046875 C 4.78125 -2.378906 4.675781 -2.664062 4.46875 -2.90625 C 4.257812 -3.144531 4 -3.328125 3.6875 -3.453125 C 3.382812 -3.578125 3.050781 -3.710938 2.6875 -3.859375 C 2.320312 -4.003906 1.984375 -4.144531 1.671875 -4.28125 C 1.367188 -4.425781 1.113281 -4.632812 0.90625 -4.90625 C 0.707031 -5.1875 0.609375 -5.523438 0.609375 -5.921875 C 0.609375 -6.429688 0.816406 -6.875 1.234375 -7.25 C 1.660156 -7.625 2.273438 -7.8125 3.078125 -7.8125 C 3.691406 -7.8125 4.226562 -7.703125 4.6875 -7.484375 C 4.6875 -7.460938 4.601562 -7.210938 4.4375 -6.734375 C 3.988281 -6.929688 3.523438 -7.03125 3.046875 -7.03125 C 2.566406 -7.03125 2.175781 -6.925781 1.875 -6.71875 C 1.582031 -6.507812 1.4375 -6.234375 1.4375 -5.890625 C 1.4375 -5.460938 1.71875 -5.125 2.28125 -4.875 C 2.53125 -4.757812 2.800781 -4.648438 3.09375 -4.546875 C 3.394531 -4.441406 3.691406 -4.320312 3.984375 -4.1875 C 4.285156 -4.0625 4.554688 -3.910156 4.796875 -3.734375 C 5.046875 -3.566406 5.242188 -3.34375 5.390625 -3.0625 C 5.546875 -2.789062 5.625 -2.476562 5.625 -2.125 C 5.625 -1.445312 5.410156 -0.898438 4.984375 -0.484375 C 4.554688 -0.078125 3.914062 0.125 3.0625 0.125 C 2.21875 0.125 1.566406 -0.0820312 1.109375 -0.5 C 0.648438 -0.925781 0.414062 -1.410156 0.40625 -1.953125 Z M 0.40625 -1.953125 "/></g></g></g><g fill="rgb(34.899902%, 34.899902%, 34.899902%)" fill-opacity="1"><g transform="translate(209.513471, 52.186785)"><g/></g></g><g fill="rgb(34.899902%, 34.899902%, 34.899902%)" fill-opacity="1"><g transform="translate(212.569306, 52.186785)"><g><path d="M 1.09375 1.28125 L 0.859375 0.65625 C 1.335938 0.425781 1.578125 -0.0546875 1.578125 -0.796875 L 1.578125 -2.78125 C 1.578125 -3.09375 1.800781 -3.46875 2.25 -3.90625 C 1.820312 -4.332031 1.609375 -4.703125 1.609375 -5.015625 L 1.609375 -7 C 1.609375 -7.707031 1.363281 -8.191406 0.875 -8.453125 L 1.109375 -9.046875 C 1.617188 -8.828125 1.957031 -8.53125 2.125 -8.15625 C 2.300781 -7.78125 2.390625 -7.140625 2.390625 -6.234375 L 2.390625 -5.078125 C 2.390625 -4.878906 2.476562 -4.664062 2.65625 -4.4375 C 2.832031 -4.21875 3.007812 -4.035156 3.1875 -3.890625 C 3.03125 -3.753906 2.914062 -3.648438 2.84375 -3.578125 C 2.769531 -3.503906 2.671875 -3.375 2.546875 -3.1875 C 2.429688 -3.007812 2.375 -2.851562 2.375 -2.71875 L 2.375 -1.46875 C 2.375 -0.851562 2.332031 -0.378906 2.25 -0.046875 C 2.175781 0.285156 2.050781 0.546875 1.875 0.734375 C 1.707031 0.921875 1.445312 1.101562 1.09375 1.28125 Z M 1.09375 1.28125 "/></g></g></g><g fill="rgb(34.899902%, 34.899902%, 34.899902%)" fill-opacity="1"><g transform="translate(59.819676, 38.324979)"><g><path d="M 6.9375 -2.515625 L 5.953125 -1.59375 L 0.421875 -7.125 L 0.421875 -7.15625 L 5.953125 -12.6875 L 6.9375 -11.734375 L 2.3125 -7.125 Z M 6.9375 -2.515625 "/></g></g></g><g fill="rgb(34.899902%, 34.899902%, 34.899902%)" fill-opacity="1"><g transform="translate(67.170833, 38.324979)"><g><path d="M 7.265625 -6.828125 L 0.890625 -6.828125 L 0.890625 -8.234375 L 7.265625 -8.234375 Z M 7.265625 -6.828125 "/></g></g></g><g fill="rgb(34.899902%, 34.899902%, 34.899902%)" fill-opacity="1"><g transform="translate(75.33879, 38.324979)"><g><path d="M 7.265625 -6.828125 L 0.890625 -6.828125 L 0.890625 -8.234375 L 7.265625 -8.234375 Z M 7.265625 -6.828125 "/></g></g></g><g fill="rgb(34.899902%, 34.899902%, 34.899902%)" fill-opacity="1"><g transform="translate(83.506747, 38.324979)"><g/></g></g><g fill="rgb(34.899902%, 34.899902%, 34.899902%)" fill-opacity="1"><g transform="translate(89.045023, 38.324979)"><g><path d="M 10.3125 0 L 0.625 0 L 0.625 -1.296875 L 8.390625 -12.578125 L 0.875 -12.578125 L 0.875 -13.9375 L 10.203125 -13.9375 L 10.203125 -12.59375 L 2.4375 -1.328125 L 10.3125 -1.328125 Z M 10.3125 0 "/></g></g></g><g fill="rgb(34.899902%, 34.899902%, 34.899902%)" fill-opacity="1"><g transform="translate(100.00203, 38.324979)"><g><path d="M 10.296875 0 L 8.6875 0 L 7.3125 -4.5 L 3.171875 -4.5 L 1.859375 0 L 0.296875 0 L 4.40625 -13.9375 L 6.0625 -13.9375 Z M 6.953125 -5.96875 L 5.21875 -11.640625 L 3.546875 -5.96875 Z M 6.953125 -5.96875 "/></g></g></g><g fill="rgb(34.899902%, 34.899902%, 34.899902%)" fill-opacity="1"><g transform="translate(110.500839, 38.324979)"><g><path d="M 4.03125 0 L 2.59375 0 L 2.59375 -12.59375 L 1.28125 -12.625 L 1.28125 -13.9375 L 4.03125 -13.9375 Z M 4.03125 0 "/></g></g></g><g fill="rgb(34.899902%, 34.899902%, 34.899902%)" fill-opacity="1"><g transform="translate(116.059028, 38.324979)"><g><path d="M 5.703125 0 L 1.546875 0 L 1.546875 -13.96875 L 5.296875 -13.96875 C 6.796875 -13.96875 7.941406 -13.554688 8.734375 -12.734375 C 9.523438 -11.910156 9.921875 -10.8125 9.921875 -9.4375 L 9.921875 -3.984375 C 9.921875 -1.328125 8.515625 0 5.703125 0 Z M 8.484375 -3.78125 L 8.484375 -9.640625 C 8.484375 -10.640625 8.191406 -11.378906 7.609375 -11.859375 C 7.035156 -12.347656 6.332031 -12.59375 5.5 -12.59375 L 2.984375 -12.59375 L 2.984375 -1.296875 L 5.375 -1.296875 C 6.851562 -1.296875 7.796875 -1.6875 8.203125 -2.46875 C 8.390625 -2.8125 8.484375 -3.25 8.484375 -3.78125 Z M 8.484375 -3.78125 "/></g></g></g><g fill="rgb(34.899902%, 34.899902%, 34.899902%)" fill-opacity="1"><g transform="translate(127.534007, 38.324979)"><g><path d="M 10.296875 0 L 8.6875 0 L 7.3125 -4.5 L 3.171875 -4.5 L 1.859375 0 L 0.296875 0 L 4.40625 -13.9375 L 6.0625 -13.9375 Z M 6.953125 -5.96875 L 5.21875 -11.640625 L 3.546875 -5.96875 Z M 6.953125 -5.96875 "/></g></g></g><g fill="rgb(34.899902%, 34.899902%, 34.899902%)" fill-opacity="1"><g transform="translate(138.032816, 38.324979)"><g><path d="M 2.984375 -5.96875 L 6.3125 -5.96875 C 6.789062 -5.96875 7.195312 -6.0625 7.53125 -6.25 C 7.863281 -6.4375 8.101562 -6.632812 8.25 -6.84375 C 8.40625 -7.0625 8.523438 -7.367188 8.609375 -7.765625 C 8.703125 -8.160156 8.75 -8.457031 8.75 -8.65625 C 8.757812 -8.863281 8.765625 -9.148438 8.765625 -9.515625 C 8.765625 -11.535156 7.921875 -12.546875 6.234375 -12.546875 L 2.984375 -12.546875 Z M 2.984375 0 L 1.546875 0 L 1.546875 -13.9375 L 6.359375 -13.9375 C 7.660156 -13.9375 8.625 -13.53125 9.25 -12.71875 C 9.882812 -11.914062 10.203125 -10.859375 10.203125 -9.546875 C 10.203125 -9.078125 10.1875 -8.671875 10.15625 -8.328125 C 10.132812 -7.992188 10.050781 -7.570312 9.90625 -7.0625 C 9.769531 -6.550781 9.582031 -6.128906 9.34375 -5.796875 C 9.101562 -5.472656 8.738281 -5.1875 8.25 -4.9375 C 7.757812 -4.695312 7.175781 -4.578125 6.5 -4.578125 L 2.984375 -4.578125 Z M 2.984375 0 "/></g></g></g><g fill="rgb(34.899902%, 34.899902%, 34.899902%)" fill-opacity="1"><g transform="translate(148.930062, 38.324979)"><g/></g></g><g fill="rgb(34.899902%, 34.899902%, 34.899902%)" fill-opacity="1"><g transform="translate(154.468338, 38.324979)"><g><path d="M 7.265625 -6.828125 L 0.890625 -6.828125 L 0.890625 -8.234375 L 7.265625 -8.234375 Z M 7.265625 -6.828125 "/></g></g></g><g fill="rgb(34.899902%, 34.899902%, 34.899902%)" fill-opacity="1"><g transform="translate(162.636295, 38.324979)"><g><path d="M 7.265625 -6.828125 L 0.890625 -6.828125 L 0.890625 -8.234375 L 7.265625 -8.234375 Z M 7.265625 -6.828125 "/></g></g></g><g fill="rgb(34.899902%, 34.899902%, 34.899902%)" fill-opacity="1"><g transform="translate(170.804252, 38.324979)"><g><path d="M 1.390625 -1.59375 L 0.421875 -2.515625 L 5.046875 -7.125 L 0.421875 -11.734375 L 1.390625 -12.6875 L 6.9375 -7.15625 L 6.9375 -7.125 Z M 1.390625 -1.59375 "/></g></g></g></svg>